<?xml version="1.0" encoding="UTF-8" standalone="no"?>
<svg
   version="1.0"
   width="157.2379pt"
   height="153.9597pt"
   viewBox="0 0 157.2379 153.9597"
   preserveAspectRatio="xMidYMid"
   id="svg14"
   sodipodi:docname="baile.svg"
   inkscape:version="1.2.2 (732a01da63, 2022-12-09)"
   xmlns:inkscape="http://www.inkscape.org/namespaces/inkscape"
   xmlns:sodipodi="http://sodipodi.sourceforge.net/DTD/sodipodi-0.dtd"
   xmlns="http://www.w3.org/2000/svg"
   xmlns:svg="http://www.w3.org/2000/svg">
  <defs
     id="defs18" />
  <sodipodi:namedview
     id="namedview16"
     pagecolor="#ffffff"
     bordercolor="#000000"
     borderopacity="0.25"
     inkscape:showpageshadow="2"
     inkscape:pageopacity="0.0"
     inkscape:pagecheckerboard="0"
     inkscape:deskcolor="#d1d1d1"
     inkscape:document-units="pt"
     showgrid="false"
     inkscape:zoom="1.0662651"
     inkscape:cx="22.508475"
     inkscape:cy="101.28814"
     inkscape:window-width="1378"
     inkscape:window-height="877"
     inkscape:window-x="-8"
     inkscape:window-y="-8"
     inkscape:window-maximized="1"
     inkscape:current-layer="g12" />
  <metadata
     id="metadata2">
Created by potrace 1.10, written by Peter Selinger 2001-2011
</metadata>
  <g
     transform="matrix(0.1,0,0,-0.1,-71.475325,158.41202)"
     fill="#000000"
     stroke="none"
     id="g12">
    <path
       d="m 1274,1550 c -11,-4 -26,-21 -33,-38 -11,-26 -8,-39 23,-118 20,-48 36,-92 36,-97 0,-5 -23,-49 -50,-97 l -50,-88 -85,-12 -85,-12 -37,30 c -21,17 -52,45 -70,64 l -32,33 19,90 c 25,112 25,140 0,165 -32,32 -101,25 -121,-12 -18,-34 -56,-271 -48,-301 4,-15 40,-66 81,-113 40,-48 83,-99 96,-114 l 22,-28 -47,-98 C 832,678 830,647 869,351 896,149 903,113 922,93 c 38,-41 117,-23 138,31 5,13 1,108 -10,232 -23,269 -14,287 79,157 l 54,-75 -25,-142 c -25,-148 -24,-187 9,-212 25,-19 77,-17 103,4 17,14 29,50 55,172 19,85 34,169 35,187 0,20 -23,75 -64,151 l -64,119 30,124 c 28,117 34,132 112,259 46,74 87,145 90,157 10,31 -77,250 -111,281 -25,23 -44,26 -79,12 z"
       id="path4"
       style="fill:none;stroke:#000000;stroke-width:50;stroke-dasharray:none;stroke-opacity:1" />
    <path
       d="m 2137,1538 c -15,-13 -39,-62 -58,-113 -20,-56 -57,-126 -96,-186 l -64,-95 -122,-28 c -67,-15 -132,-34 -144,-41 -12,-8 -60,-60 -106,-115 -79,-95 -85,-105 -115,-204 -18,-57 -32,-113 -32,-123 0,-53 87,-85 124,-45 9,11 29,56 44,101 20,58 42,99 77,143 l 50,62 3,-34 c 8,-84 -9,-142 -84,-288 -58,-110 -82,-171 -109,-271 -19,-71 -35,-142 -35,-159 0,-64 96,-97 143,-50 15,16 34,64 56,148 26,96 48,150 94,233 33,59 63,110 68,112 4,3 30,-26 57,-65 l 49,-70 13,-128 c 17,-177 25,-213 50,-234 32,-26 82,-23 108,5 27,28 27,49 7,257 l -15,155 -55,113 -55,114 15,51 c 9,29 18,88 22,132 6,77 9,85 80,207 40,70 93,179 118,242 49,124 49,148 3,180 -31,22 -63,20 -91,-6 z"
       id="path6"
       style="fill:none;stroke:#000000;stroke-width:50;stroke-dasharray:none;stroke-opacity:1" />
    <path
       d="m 1028,1404 c -84,-45 -74,-185 15,-227 43,-21 67,-21 112,-3 92,39 100,184 13,232 -31,18 -107,17 -140,-2 z"
       id="path8"
       style="fill:none;stroke:#000000;stroke-width:50;stroke-dasharray:none;stroke-opacity:1" />
    <path
       d="m 1683,1394 c -117,-91 1,-283 134,-218 132,65 94,244 -51,244 -39,0 -58,-6 -83,-26 z"
       id="path10"
       style="fill:none;stroke:#000000;stroke-width:50;stroke-dasharray:none;stroke-opacity:1" />
  </g>
</svg>
