<?xml version="1.0" encoding="UTF-8" standalone="no"?>
<svg
   version="1.0"
   width="179.34242pt"
   height="147.39955pt"
   viewBox="0 0 179.34242 147.39955"
   preserveAspectRatio="xMidYMid"
   id="svg12"
   sodipodi:docname="catering .svg"
   inkscape:version="1.2.2 (732a01da63, 2022-12-09)"
   xmlns:inkscape="http://www.inkscape.org/namespaces/inkscape"
   xmlns:sodipodi="http://sodipodi.sourceforge.net/DTD/sodipodi-0.dtd"
   xmlns="http://www.w3.org/2000/svg"
   xmlns:svg="http://www.w3.org/2000/svg">
  <defs
     id="defs16" />
  <sodipodi:namedview
     id="namedview14"
     pagecolor="#ffffff"
     bordercolor="#000000"
     borderopacity="0.25"
     inkscape:showpageshadow="2"
     inkscape:pageopacity="0.0"
     inkscape:pagecheckerboard="0"
     inkscape:deskcolor="#d1d1d1"
     inkscape:document-units="pt"
     showgrid="false"
     inkscape:zoom="1.77"
     inkscape:cx="15.536723"
     inkscape:cy="151.9774"
     inkscape:window-width="1378"
     inkscape:window-height="877"
     inkscape:window-x="-8"
     inkscape:window-y="-8"
     inkscape:window-maximized="1"
     inkscape:current-layer="g10" />
  <metadata
     id="metadata2">
Created by potrace 1.10, written by Peter Selinger 2001-2011
</metadata>
  <g
     transform="matrix(0.1,0,0,-0.1,-10.657579,168.79104)"
     fill="#000000"
     stroke="none"
     id="g10">
    <path
       d="m 929,1677 c -52,-20 -94,-52 -118,-91 -20,-31 -27,-35 -111,-50 C 589,1516 436,1462 363,1418 251,1351 177,1260 169,1180 l -4,-35 839,-3 839,-2 -7,42 c -16,99 -106,193 -250,263 -87,42 -228,85 -329,100 -38,6 -51,13 -61,34 -44,83 -176,132 -267,98 z m 153,-83 c 14,-8 29,-17 31,-21 3,-5 -49,-8 -115,-9 -117,0 -119,0 -96,18 50,39 119,43 180,12 z"
       id="path4" />
    <path
       d="m 201,1109 c -102,-10 -123,-24 -55,-36 63,-10 1667,-11 1717,0 20,4 37,12 37,16 0,5 -17,12 -37,16 -55,10 -1563,14 -1662,4 z"
       id="path6" />
    <path
       d="m 1190,1032 c -29,-14 -40,-30 -63,-86 -44,-110 -60,-119 -72,-40 -3,26 -9,53 -12,60 -7,19 -47,18 -63,-1 -12,-15 -12,-22 6,-198 7,-65 6,-69 -22,-98 -57,-60 -150,-59 -220,3 -50,44 -56,59 -64,179 -5,59 -13,117 -19,128 -13,23 -74,45 -110,39 -41,-6 -48,-31 -23,-85 28,-64 43,-191 35,-306 l -6,-94 93,-79 c 141,-119 154,-133 55,-58 -49,37 -107,81 -128,98 l -38,30 -32,-39 c -18,-22 -32,-43 -32,-47 0,-12 265,-229 273,-224 4,2 22,25 40,50 22,31 29,47 21,52 -7,4 37,17 97,29 126,25 159,40 202,90 42,48 66,96 86,179 9,38 24,82 32,98 15,29 246,220 291,241 30,13 26,37 -10,57 -30,17 -20,20 -190,-74 -37,-21 -70,-36 -73,-33 -12,11 19,78 42,94 65,42 -19,74 -96,35 z M 770,293 c 0,-21 -29,-28 -46,-11 -14,13 -14,17 1,32 13,13 20,14 31,5 8,-6 14,-18 14,-26 z"
       id="path8" />
  </g>
</svg>
