<?xml version="1.0" standalone="no"?>
<!DOCTYPE svg PUBLIC "-//W3C//DTD SVG 20010904//EN"
 "http://www.w3.org/TR/2001/REC-SVG-20010904/DTD/svg10.dtd">
<svg version="1.0" xmlns="http://www.w3.org/2000/svg"
 width="219.000000pt" height="230.000000pt" viewBox="0 0 219.000000 230.000000"
 preserveAspectRatio="xMidYMid meet">
<metadata>
Created by potrace 1.10, written by Peter Selinger 2001-2011
</metadata>
<g transform="translate(0.000000,230.000000) scale(0.100000,-0.100000)"
fill="#000000" stroke="none">
<path d="M971 2174 c-25 -9 -56 -23 -70 -32 -54 -33 -124 -109 -153 -167 -17
-33 -48 -76 -69 -96 l-39 -36 0 -97 c0 -111 13 -146 60 -166 16 -7 44 -10 60
-6 27 5 37 -1 98 -63 56 -57 77 -72 127 -87 l60 -19 -100 -6 c-55 -3 -123 -13
-152 -23 -98 -33 -123 -65 -314 -409 l-174 -314 -86 -5 c-93 -6 -119 -17 -150
-65 -16 -24 -19 -49 -19 -188 0 -182 8 -223 51 -259 l31 -26 963 0 963 0 31
26 c43 35 51 77 51 252 0 225 -18 253 -170 260 l-85 4 -174 315 c-190 343
-216 376 -313 409 -28 9 -97 19 -152 23 l-101 6 60 19 c50 15 71 30 127 87 61
62 71 68 98 63 16 -4 44 -1 60 6 47 20 60 55 60 166 l0 97 -39 36 c-21 20 -51
60 -66 90 -37 74 -116 155 -184 188 -46 23 -71 28 -151 30 -68 2 -107 -1 -139
-13z m256 -92 c59 -31 104 -72 132 -123 l25 -44 -47 48 c-70 72 -142 102 -242
102 -100 0 -172 -31 -241 -102 -41 -42 -45 -44 -31 -17 36 70 95 121 176 151
53 20 175 12 228 -15z m-61 -107 c64 -19 126 -72 154 -132 18 -38 21 -60 18
-118 -4 -95 -40 -156 -118 -202 -47 -29 -63 -33 -125 -33 -62 0 -78 4 -125 33
-40 23 -64 47 -87 87 -29 47 -33 63 -33 124 0 117 65 208 170 241 59 18 86 18
146 0z m-411 -241 c0 -64 -3 -79 -15 -79 -12 0 -16 16 -18 69 -3 76 2 100 21
93 8 -2 12 -28 12 -83z m710 0 c0 -64 -3 -79 -15 -79 -12 0 -16 16 -18 69 -3
76 2 100 21 93 8 -2 12 -28 12 -83z m-80 -441 c22 -12 52 -34 67 -50 21 -22
245 -411 322 -560 l17 -33 -85 0 -85 0 -22 38 c-180 321 -184 327 -215 327
-27 0 -29 -3 -36 -50 -3 -27 -7 -148 -7 -267 l-1 -218 -245 0 -245 0 -1 193
c-1 105 -4 226 -8 267 -6 75 -6 75 -35 75 -27 0 -35 -10 -109 -140 -43 -77
-90 -159 -104 -182 l-24 -43 -85 0 c-85 0 -85 0 -73 23 36 69 276 499 300 537
15 25 42 54 60 64 70 41 104 46 344 43 213 -2 233 -4 270 -24z m-627 -725 l-3
-83 -51 71 -51 70 51 93 51 94 3 -82 c2 -44 2 -118 0 -163z m730 148 l50 -89
-50 -68 c-28 -38 -52 -69 -54 -69 -2 0 -4 73 -4 162 0 89 2 159 4 157 3 -3 27
-44 54 -93z m-898 -156 c10 -5 39 -39 64 -75 26 -35 55 -69 66 -75 30 -16 732
-13 754 3 10 7 41 44 70 83 l52 69 216 0 c151 0 221 -4 229 -12 18 -18 26
-307 9 -338 l-13 -25 -943 0 c-922 0 -944 0 -954 19 -13 25 -13 291 -1 325 6
13 18 26 28 29 36 9 405 7 423 -3z"/>
</g>
</svg>
