<?xml version="1.0" standalone="no"?>
<!DOCTYPE svg PUBLIC "-//W3C//DTD SVG 20010904//EN"
 "http://www.w3.org/TR/2001/REC-SVG-20010904/DTD/svg10.dtd">
<svg version="1.0" xmlns="http://www.w3.org/2000/svg"
 width="225.000000pt" height="225.000000pt" viewBox="0 0 225.000000 225.000000"
 preserveAspectRatio="xMidYMid meet">
<metadata>
Created by potrace 1.10, written by Peter Selinger 2001-2011
</metadata>
<g transform="translate(0.000000,225.000000) scale(0.050000,-0.050000)"
fill="#000000" stroke="none">
<path d="M3386 4234 c-113 -113 -206 -223 -206 -243 0 -60 378 -431 439 -431
65 0 441 368 441 432 0 45 -396 448 -441 448 -15 0 -120 -93 -233 -206z m358
-128 l116 -115 -114 -115 -115 -116 -115 114 -115 114 105 114 c128 139 102
139 238 4z"/>
<path d="M1471 4389 c-50 -51 -39 -72 127 -223 315 -289 320 -418 31 -836
-228 -329 -206 -629 54 -727 115 -44 187 96 77 151 -176 87 -163 240 46 539
309 444 279 712 -113 1020 -148 115 -173 124 -222 76z"/>
<path d="M2797 3824 c-98 -65 -256 -309 -257 -397 0 -12 -27 -33 -61 -47 -151
-63 -299 -318 -299 -515 0 -270 182 -638 291 -588 65 30 62 61 -24 234 -123
250 -114 521 23 649 37 35 51 39 57 18 5 -15 19 -68 33 -118 85 -317 385 -405
493 -145 89 213 -40 433 -299 513 -46 15 7 124 116 238 106 112 48 239 -73
158z m30 -624 c79 -69 102 -135 74 -209 -34 -88 -96 -66 -152 54 -91 196 -54
271 78 155z"/>
<path d="M833 3827 c-21 -22 -15 -97 11 -123 60 -60 149 0 128 86 -12 49 -102
73 -139 37z"/>
<path d="M1000 3580 c-30 -56 7 -120 70 -120 63 0 100 64 70 120 -12 23 -42
40 -70 40 -28 0 -58 -17 -70 -40z"/>
<path d="M731 3569 c-40 -41 -39 -78 1 -119 70 -69 173 25 117 106 -37 52 -74
56 -118 13z"/>
<path d="M3491 3069 c-41 -42 -39 -75 6 -116 46 -42 69 -42 110 4 52 57 17
143 -57 143 -15 0 -41 -14 -59 -31z"/>
<path d="M3672 2854 c-75 -55 5 -191 83 -142 67 42 41 168 -35 168 -7 0 -28
-12 -48 -26z"/>
<path d="M3381 2811 c-48 -58 -18 -121 59 -121 58 0 71 8 77 46 7 55 -29 104
-77 104 -19 0 -46 -13 -59 -29z"/>
<path d="M1195 2545 c-51 -58 -1197 -2368 -1191 -2400 24 -122 12 -126 1291
513 1067 533 1225 620 1225 678 0 29 -1232 1244 -1261 1244 -18 0 -47 -16 -64
-35z m820 -1328 c-146 -73 -271 -127 -278 -120 -8 7 -47 96 -87 197 -73 183
-107 221 -176 195 -61 -24 -55 -85 28 -287 46 -112 80 -205 76 -207 -18 -11
-609 -300 -617 -302 -5 -2 -46 146 -92 327 l-83 330 180 360 180 360 36 -90
c79 -193 123 -234 189 -179 44 36 35 92 -48 292 -141 339 -106 320 459 -245
l498 -498 -265 -133z m-1278 -367 c34 -131 59 -240 57 -242 -21 -18 -494 -246
-494 -238 0 21 363 734 370 727 4 -4 34 -115 67 -247z"/>
<path d="M1335 1668 c-21 -47 -18 -57 23 -90 75 -61 168 17 121 103 -31 58
-115 50 -144 -13z"/>
<path d="M3136 2312 c-264 -108 -569 -436 -485 -521 53 -52 82 -37 238 126
291 302 463 342 811 185 362 -164 678 -108 780 137 50 122 -81 171 -160 61
-96 -135 -267 -160 -481 -71 -359 149 -501 166 -703 83z"/>
<path d="M3970 1524 c-379 -243 -117 -794 301 -635 252 97 289 452 64 618 -80
60 -284 69 -365 17z m248 -153 c67 -34 112 -130 94 -200 -48 -193 -352 -164
-352 34 0 147 131 232 258 166z"/>
</g>
</svg>
