<?xml version="1.0" encoding="UTF-8" standalone="no"?>
<svg
   version="1.0"
   width="149.38902pt"
   height="229.55446pt"
   viewBox="0 0 149.38902 229.55446"
   preserveAspectRatio="xMidYMid"
   id="svg18"
   sodipodi:docname="fotografo.svg"
   inkscape:version="1.2.2 (732a01da63, 2022-12-09)"
   xmlns:inkscape="http://www.inkscape.org/namespaces/inkscape"
   xmlns:sodipodi="http://sodipodi.sourceforge.net/DTD/sodipodi-0.dtd"
   xmlns="http://www.w3.org/2000/svg"
   xmlns:svg="http://www.w3.org/2000/svg">
  <defs
     id="defs22" />
  <sodipodi:namedview
     id="namedview20"
     pagecolor="#ffffff"
     bordercolor="#000000"
     borderopacity="0.25"
     inkscape:showpageshadow="2"
     inkscape:pageopacity="0.0"
     inkscape:pagecheckerboard="0"
     inkscape:deskcolor="#d1d1d1"
     inkscape:document-units="pt"
     showgrid="false"
     inkscape:zoom="0.78666667"
     inkscape:cx="-78.177966"
     inkscape:cy="216.10169"
     inkscape:window-width="1378"
     inkscape:window-height="877"
     inkscape:window-x="-8"
     inkscape:window-y="-8"
     inkscape:window-maximized="1"
     inkscape:current-layer="g16" />
  <metadata
     id="metadata2">
Created by potrace 1.10, written by Peter Selinger 2001-2011
</metadata>
  <g
     transform="matrix(0.1,0,0,-0.1,-38,227.34725)"
     fill="#000000"
     stroke="none"
     id="g16">
    <path
       d="m 1127,2236 c -55,-20 -104,-62 -127,-106 -11,-22 -20,-44 -20,-50 0,-6 30,-10 76,-10 70,0 78,-2 105,-29 16,-16 29,-39 29,-50 0,-21 1,-21 32,-5 42,22 128,15 167,-14 16,-11 31,-18 35,-15 10,10 7,93 -5,134 -35,114 -180,187 -292,145 z"
       id="path4"
       style="fill:none;stroke:#000000;stroke-width:50;stroke-dasharray:none;stroke-opacity:1" />
    <path
       d="m 906,1985 c -3,-9 -6,-39 -6,-65 0,-39 4,-52 20,-60 10,-6 24,-9 31,-8 6,2 14,-3 16,-9 4,-10 -17,-13 -81,-13 -105,0 -106,-2 -106,-135 0,-106 -4,-101 77,-108 l 52,-4 -15,28 c -20,39 -18,88 6,126 56,92 195,81 234,-19 36,-90 -23,-178 -119,-178 -33,0 -35,-2 -25,-20 10,-18 21,-20 105,-20 51,0 105,4 119,10 24,9 26,15 26,65 0,50 -4,61 -50,123 -27,38 -53,83 -56,100 -6,29 -10,32 -41,32 -23,0 -33,4 -30,13 3,11 7,13 42,16 13,1 15,13 13,69 l -3,67 -101,3 c -86,2 -103,0 -108,-13 z m 164,-55 c 0,-18 -7,-20 -60,-20 -53,0 -60,2 -60,20 0,18 7,20 60,20 53,0 60,-2 60,-20 z M 867,1756 c -4,-9 -11,-16 -17,-16 -17,0 -24,31 -9,41 18,11 34,-5 26,-25 z"
       id="path6"
       style="stroke:#000000;stroke-opacity:1" />
    <path
       d="m 1260,1933 c -52,-19 -83,-90 -59,-134 33,-63 332,-457 354,-467 70,-32 145,16 145,93 0,14 -37,104 -82,201 -86,185 -104,208 -162,208 -26,0 -38,8 -65,44 -41,54 -84,72 -131,55 z"
       id="path8"
       style="fill:none;stroke:#000000;stroke-width:50;stroke-dasharray:none;stroke-opacity:1" />
    <path
       d="m 959,1721 c -31,-32 -35,-50 -17,-84 26,-50 77,-61 122,-26 35,28 36,80 1,114 -33,33 -70,32 -106,-4 z"
       id="path10" />
    <path
       d="m 570,1599 c -154,-86 -165,-96 -165,-154 0,-35 6,-50 27,-71 29,-29 54,-33 334,-49 119,-7 120,-7 151,19 37,31 48,67 33,111 -19,57 -47,67 -208,76 -80,4 -146,10 -148,12 -2,2 23,12 56,22 l 60,18 v 44 c 0,23 -3,43 -7,43 -5,0 -64,-32 -133,-71 z"
       id="path12"
       style="fill:none;stroke:#000000;stroke-width:50;stroke-dasharray:none;stroke-opacity:1" />
    <path
       d="m 1305,1511 c -3,-11 -20,-32 -36,-46 -29,-23 -37,-25 -140,-25 h -109 v -25 c 0,-35 -23,-86 -49,-109 -19,-18 -21,-29 -21,-141 V 1043 L 792,952 C 634,861 598,833 586,794 583,783 559,625 535,445 L 490,117 510,74 c 47,-95 185,-96 225,-1 7,18 30,160 52,317 l 39,285 187,108 c 163,94 193,108 226,105 l 39,-3 -79,-188 c -43,-104 -79,-201 -79,-216 0,-14 8,-41 18,-58 21,-41 501,-399 554,-415 102,-31 193,85 143,181 -8,17 -98,91 -220,181 -113,83 -205,155 -205,159 0,4 29,75 65,158 l 65,151 v 214 215 l -27,14 c -14,8 -66,67 -114,132 -72,99 -88,115 -94,98 z"
       id="path14"
       style="fill:none;stroke:#000000;stroke-width:50;stroke-dasharray:none;stroke-opacity:1" />
  </g>
</svg>
