<?xml version="1.0" encoding="UTF-8" standalone="no"?>
<svg
   version="1.0"
   width="300.000000pt"
   height="300.000000pt"
   viewBox="0 0 300.000000 300.000000"
   preserveAspectRatio="xMidYMid meet"
   id="svg12"
   sodipodi:docname="payaso.svg"
   inkscape:version="1.2.2 (732a01da63, 2022-12-09)"
   xmlns:inkscape="http://www.inkscape.org/namespaces/inkscape"
   xmlns:sodipodi="http://sodipodi.sourceforge.net/DTD/sodipodi-0.dtd"
   xmlns="http://www.w3.org/2000/svg"
   xmlns:svg="http://www.w3.org/2000/svg">
  <defs
     id="defs16" />
  <sodipodi:namedview
     id="namedview14"
     pagecolor="#ffffff"
     bordercolor="#000000"
     borderopacity="0.25"
     inkscape:showpageshadow="2"
     inkscape:pageopacity="0.0"
     inkscape:pagecheckerboard="0"
     inkscape:deskcolor="#d1d1d1"
     inkscape:document-units="pt"
     showgrid="false"
     inkscape:zoom="0.59"
     inkscape:cx="-27.966102"
     inkscape:cy="27.118644"
     inkscape:window-width="1378"
     inkscape:window-height="877"
     inkscape:window-x="-8"
     inkscape:window-y="-8"
     inkscape:window-maximized="1"
     inkscape:current-layer="g10" />
  <metadata
     id="metadata2">
Created by potrace 1.10, written by Peter Selinger 2001-2011
</metadata>
  <g
     transform="matrix(0.21584465,0,0,-0.15649719,-181.67056,406.07345)"
     fill="#000000"
     stroke="none"
     id="g10">
    <path
       d="m 1453,2517 c -132,-189 -243,-397 -243,-456 0,-43 -34,-147 -56,-171 -12,-14 -26,-37 -29,-51 -9,-37 26,-101 74,-136 22,-15 48,-46 59,-68 11,-22 38,-61 60,-86 l 41,-46 -32,-30 c -18,-17 -106,-70 -195,-118 -185,-99 -216,-122 -231,-168 -8,-27 -41,-407 -41,-480 v -22 l 677,3 c 372,1 678,4 680,5 6,6 -28,454 -37,488 -5,19 -20,45 -32,56 -13,12 -107,67 -209,122 -102,55 -193,109 -203,120 -17,19 -16,21 28,75 25,31 53,71 62,88 9,18 28,41 41,52 93,73 111,139 53,201 -18,20 -33,64 -50,155 -13,66 -36,125 -81,208 -83,151 -230,362 -252,362 -6,0 -44,-47 -84,-103 z m 111,20 c 13,-20 2,-32 -36,-41 -22,-5 -28,-3 -28,11 0,20 30,55 44,50 5,-2 14,-11 20,-20 z m 54,-87 c 15,-24 8,-40 -17,-40 -11,0 -56,-11 -102,-24 -46,-14 -85,-23 -87,-21 -2,2 7,19 19,38 19,28 33,37 84,50 82,20 88,20 103,-3 z m 61,-82 c 12,-30 7,-33 -64,-51 -33,-9 -106,-28 -163,-43 -57,-14 -106,-24 -109,-20 -7,7 14.5479,47.5895 33.5479,63.5895 8,7 29.5343,24.2309 39.5343,16.2309 11,-9 31.9178,-0.8204 98.9178,15.1796 48,12 94,25 103,31 28,16 52,11 61,-12 z m 50,-94 c 6,-15 10,-27 9,-29 -7,-4 -453,-112 -456,-110 -2,2 3,16 11,31 13,25 31,32 208,80 107,29 199,53 205,53 6,1 16,-11 23,-25 z m 67,-119 c 12,-29 24,-66 26,-82 l 3,-28 -283,-3 c -238,-2 -283,0 -288,12 -8,22 14,56 31,49 9,-3 37,0 63,7 26,6 58,14 72,16 71,13 288,68 310,79 32,17 38,13 66,-50 z m -429,-169 c -3,-8 -9,-30 -12,-49 -8,-40 -36,-70 -80,-85 -27,-9 -28,-10 -10,-17 55,-19 67,-28 81,-60 7,-19 14,-50 14,-70 0,-19 5,-35 10,-35 6,0 10,16 10,35 0,75 38,125 94,125 37,0 32,17 -7,24 -47,9 -76,43 -83,99 l -7,47 h 167 167 l -7,-37 c -4,-21 -10,-48 -15,-60 -9,-25 -57,-53 -89,-53 -12,0 -18,-4 -15,-10 3,-5 17,-10 30,-10 41,0 74,-39 85,-99 6,-30 12,-56 14,-58 2,-2 6,18 10,45 8,59 28,90 74,109 l 35,15 -41,18 c -43,20 -55,38 -67,104 l -7,36 h 55 c 31,0 59,-5 63,-11 3,-6 9,-39 11,-73 16,-189 -163,-449 -307,-449 -76,0 -167,70 -233,181 -65,107 -88,209 -71,315 l 7,37 h 64 c 52,0 64,-3 60,-14 z m 19,-137 c 3,-6 2,-15 -2,-19 -12,-12 -38,5 -30,19 9,14 23,14 32,0 z m 344,-9 c 0,-11 -4,-20 -9,-20 -13,0 -32,26 -24,33 13,14 33,6 33,-13 z m 180,-19 c 0,-11 -9,-29 -20,-42 l -20,-24 6,35 c 3,19 8,41 10,48 5,18 24,5 24,-17 z m -716,3 c 3,-9 6,-25 6,-36 0,-17 -3,-18 -15,-8 -16,13 -21,60 -6,60 5,0 12,-7 15,-16 z m 250,-379 c 65,-33 127,-33 192,0 48,24 49,24 68,6 19,-19 18,-20 -15,-40 -78,-48 -196,-53 -279,-11 -25,12 -47,24 -49,26 -3,3 28,44 33,44 1,0 23,-11 50,-25 z m -86,-70 c 112,-74 248,-74 360,0 l 41,27 172,-94 c 96,-52 180,-104 190,-118 14,-20 20,-61 29,-200 6,-96 13,-194 17,-217 l 5,-43 h -631 c -347,0 -631,4 -631,8 0,5 7,103 15,218 13,169 19,214 34,234 15,20 328,205 354,209 4,1 24,-10 45,-24 z"
       id="path4"
       sodipodi:nodetypes="cscccscccccscccccscccccccscccscccscsccccccccccccccccccccccccccccccccccsssscccccccscscsccccccsccscccsccsccsscssccccssscsscccccsscccccccccsscscc" />
    <path
       d="m 1500,1252 c -21,-10 -42,-32 -53,-54 -16,-33 -16,-40 -4,-71 31,-72 114,-91 168,-38 53,53 34,137 -37,167 -41,17 -32,17 -74,-4 z"
       id="path6"
       style="fill:#000000;fill-opacity:1;stroke:#000000;stroke-opacity:1"
       sodipodi:nodetypes="cccccc" />
    <path
       d="m 1475,978 c -73,-64 -30,-188 65,-188 54,0 99,48 100,107 0,86 -101,136 -165,81 z"
       id="path8"
       sodipodi:nodetypes="cscc" />
  </g>
</svg>
