<?xml version="1.0" standalone="no"?>
<!DOCTYPE svg PUBLIC "-//W3C//DTD SVG 20010904//EN"
 "http://www.w3.org/TR/2001/REC-SVG-20010904/DTD/svg10.dtd">
<svg version="1.0" xmlns="http://www.w3.org/2000/svg"
 width="222.000000pt" height="227.000000pt" viewBox="0 0 222.000000 227.000000"
 preserveAspectRatio="xMidYMid meet">
<metadata>
Created by potrace 1.10, written by Peter Selinger 2001-2011
</metadata>
<g transform="translate(0.000000,227.000000) scale(0.100000,-0.100000)"
fill="#000000" stroke="none">
<path d="M970 2153 c-452 -73 -852 -353 -910 -637 -25 -122 35 -240 160 -310
l45 -25 -3 -153 c-2 -110 1 -176 13 -237 57 -295 224 -519 452 -608 59 -23 83
-27 178 -27 93 0 120 4 175 25 211 80 368 277 446 559 15 51 18 103 19 245 0
198 -11 261 -75 414 l-30 74 45 48 c99 106 148 210 147 316 0 88 -24 144 -87
201 -95 89 -213 123 -414 121 -75 -1 -147 -4 -161 -6z m450 -870 c128 -399
-25 -858 -335 -1004 -33 -16 -82 -32 -108 -35 l-47 -7 0 82 0 81 -30 0 -29 0
-3 -77 -3 -78 -37 2 c-20 1 -65 15 -100 31 -251 115 -403 428 -381 785 l6 88
71 -8 c99 -11 235 -6 341 13 180 33 404 122 546 218 66 44 66 44 109 -91z"/>
<path d="M606 964 c-24 -24 -20 -80 6 -98 32 -22 61 -20 86 7 26 27 28 54 6
85 -18 26 -74 30 -98 6z"/>
<path d="M1107 962 c-25 -28 -21 -67 9 -91 33 -26 55 -26 84 -3 27 22 29 65 5
92 -23 25 -76 26 -98 2z"/>
<path d="M867 590 c-24 -25 -36 -30 -75 -30 -26 0 -67 9 -91 20 -24 11 -46 20
-50 20 -8 0 -34 -51 -29 -55 2 -1 23 -12 47 -25 61 -31 140 -37 195 -16 41 16
47 16 75 2 42 -22 110 -20 178 5 73 27 77 30 62 62 -15 32 -15 32 -70 7 -24
-11 -65 -20 -91 -20 -38 0 -52 5 -76 30 -17 17 -34 30 -39 30 -4 -1 -21 -14
-36 -30z"/>
<path d="M1895 2071 c-25 -11 -51 -40 -59 -66 -9 -33 -87 -936 -80 -946 3 -5
86 -9 185 -9 l179 0 0 40 c0 44 -66 809 -76 880 -8 58 -18 76 -54 95 -32 16
-64 18 -95 6z"/>
<path d="M1760 1008 c-37 -20 -50 -55 -50 -135 0 -130 19 -146 178 -151 152
-6 218 3 248 33 22 22 24 33 24 114 0 81 -2 93 -24 118 l-24 28 -164 3 c-118
2 -170 -1 -188 -10z"/>
<path d="M1752 633 c-24 -52 -27 -70 -27 -163 0 -94 3 -111 28 -164 34 -74 85
-137 142 -176 l43 -29 39 28 c54 39 104 100 139 168 27 54 29 66 29 173 0 100
-3 122 -24 168 l-23 52 -160 0 -159 0 -27 -57z"/>
</g>
</svg>
