<?xml version="1.0" standalone="no"?>
<!DOCTYPE svg PUBLIC "-//W3C//DTD SVG 20010904//EN"
 "http://www.w3.org/TR/2001/REC-SVG-20010904/DTD/svg10.dtd">
<svg version="1.0" xmlns="http://www.w3.org/2000/svg"
 width="900.000000pt" height="900.000000pt" viewBox="0 0 900.000000 900.000000"
 preserveAspectRatio="xMidYMid meet">
<metadata>
Created by potrace 1.10, written by Peter Selinger 2001-2011
</metadata>
<g transform="translate(0.000000,900.000000) scale(0.100000,-0.100000)"
fill="#000000" stroke="none">
<path d="M1248 8432 c-61 -22 -130 -80 -157 -132 -19 -37 -21 -57 -21 -202 0
-156 10 -242 46 -413 20 -95 44 -185 56 -215 6 -14 14 -38 19 -55 18 -69 54
-154 126 -300 37 -76 44 -88 86 -153 15 -24 27 -45 27 -47 0 -8 96 -143 154
-215 33 -41 120 -135 193 -207 73 -73 133 -137 133 -143 0 -7 -189 -10 -556
-10 -579 0 -701 -6 -809 -42 -144 -48 -275 -135 -373 -251 -55 -65 -138 -219
-155 -290 -7 -26 -12 -284 -14 -691 -3 -632 -3 -651 16 -692 23 -49 92 -110
148 -132 24 -9 94 -17 193 -21 l155 -6 5 -1525 6 -1525 22 -63 c67 -192 184
-346 336 -442 87 -55 162 -84 285 -110 92 -20 144 -20 3321 -20 3156 0 3230 0
3322 19 96 20 118 27 198 64 195 90 342 261 422 489 l22 63 6 1525 5 1525 155
6 c99 4 169 12 193 21 53 21 126 84 143 125 8 19 21 36 29 40 13 4 15 91 15
640 0 558 -2 637 -15 647 -9 6 -18 29 -21 51 -8 52 -95 230 -135 275 -17 19
-38 45 -46 58 -27 39 -173 147 -243 179 -167 78 -227 83 -909 83 -598 0 -588
-1 -518 53 112 87 306 305 414 467 99 148 134 212 206 370 34 76 76 186 100
265 58 193 107 495 107 663 0 120 -75 230 -185 271 -58 22 -61 22 -699 18
-705 -4 -775 -9 -1031 -74 -233 -59 -516 -178 -671 -282 -25 -17 -47 -31 -50
-31 -3 0 -59 -41 -126 -91 -170 -129 -343 -299 -461 -454 -67 -88 -147 -209
-189 -285 -14 -25 -31 -45 -38 -45 -7 0 -24 20 -38 45 -80 144 -231 348 -352
474 -115 120 -361 326 -424 356 -6 3 -31 18 -56 34 -129 85 -397 206 -550 249
-30 8 -79 23 -109 31 -29 9 -61 16 -70 16 -9 0 -45 6 -81 14 -163 36 -241 40
-880 42 -577 3 -639 1 -682 -14z m6134 -532 c1 -18 -16 -115 -29 -160 -42
-156 -70 -233 -125 -345 -108 -219 -214 -367 -376 -524 -279 -271 -554 -414
-972 -506 -105 -23 -485 -34 -478 -14 2 8 191 139 419 291 247 165 429 293
451 318 54 60 69 135 51 244 -9 57 -110 157 -176 174 -109 28 -150 14 -345
-115 -81 -54 -155 -102 -164 -108 -9 -5 -50 -32 -90 -60 -40 -27 -81 -54 -90
-60 -9 -5 -110 -73 -225 -150 -114 -77 -215 -144 -225 -150 -9 -5 -45 -29 -79
-53 -72 -49 -92 -45 -67 15 9 21 25 61 36 88 116 286 331 560 602 768 170 131
445 260 660 310 36 9 90 21 120 28 40 10 196 15 560 19 461 5 541 3 542 -10z
m-4710 -5 c196 -37 334 -80 493 -155 388 -182 694 -489 888 -892 26 -53 47
-101 47 -107 0 -6 8 -26 17 -46 27 -58 6 -62 -65 -13 -35 24 -70 48 -80 53 -9
6 -111 73 -225 150 -115 77 -216 145 -225 150 -9 6 -53 35 -97 65 -44 30 -84
57 -90 60 -5 3 -63 41 -128 85 -208 141 -259 159 -365 135 -49 -12 -66 -23
-119 -76 -57 -58 -62 -67 -69 -121 -14 -103 1 -164 54 -222 22 -25 206 -155
451 -319 228 -152 417 -283 419 -291 7 -20 -372 -9 -478 14 -232 51 -427 125
-607 231 -220 129 -455 354 -599 574 -56 86 -164 287 -164 306 0 4 -13 41 -29
83 -48 127 -97 323 -86 341 4 6 191 10 490 10 395 0 500 -3 567 -15z m1023
-2610 l0 -520 -1585 0 -1585 0 0 430 0 430 28 47 c32 54 83 97 142 121 36 15
177 16 1520 14 l1480 -2 0 -520z m1060 -1845 l0 -2365 -265 0 -265 0 -3 2355
c-1 1295 0 2361 3 2368 3 10 62 12 267 10 l263 -3 0 -2365z m3527 2353 c61
-23 112 -66 145 -121 l28 -47 0 -430 0 -430 -1585 0 -1585 0 -3 510 c-1 281 0
516 3 523 3 9 309 12 1479 12 1354 0 1479 -1 1518 -17z m-4584 -3142 c1 -861
-2 -1569 -6 -1573 -5 -5 -559 -8 -1232 -8 l-1223 0 -45 23 c-56 27 -111 92
-134 155 -15 43 -17 169 -17 1503 -1 801 2 1459 6 1462 3 4 601 6 1327 5
l1321 -3 3 -1564z m4240 114 c3 -1327 1 -1455 -14 -1506 -21 -71 -80 -142
-141 -169 -45 -20 -60 -20 -1272 -18 l-1226 3 -3 1560 c-1 858 0 1566 3 1573
3 10 274 12 1327 10 l1323 -3 3 -1450z"/>
</g>
</svg>
