<?xml version="1.0" standalone="no"?>
<!DOCTYPE svg PUBLIC "-//W3C//DTD SVG 20010904//EN"
 "http://www.w3.org/TR/2001/REC-SVG-20010904/DTD/svg10.dtd">
<svg version="1.0" xmlns="http://www.w3.org/2000/svg"
 width="300.000000pt" height="301.000000pt" viewBox="0 0 300.000000 301.000000"
 preserveAspectRatio="xMidYMid meet">
<metadata>
Created by potrace 1.10, written by Peter Selinger 2001-2011
</metadata>
<g transform="translate(0.000000,301.000000) scale(0.050000,-0.050000)"
fill="#000000" stroke="none">
<path d="M2590 6007 c-685 -57 -1815 -318 -1785 -413 23 -74 590 -295 1065
-414 l240 -60 -170 10 c-356 21 -748 116 -1038 252 -93 43 -172 74 -177 69 -5
-5 24 -190 64 -411 182 -992 414 -3000 376 -3259 -37 -252 -77 -309 -93 -131
-58 663 -34 597 -218 606 -660 32 -549 -903 163 -1378 151 -101 152 -102 73
-91 -608 90 -1041 1044 -658 1453 l89 95 -93 -17 c-640 -120 -530 -1134 182
-1670 1001 -753 3064 -850 4427 -206 968 456 1331 1727 536 1875 l-94 18 89
-95 c382 -408 -52 -1363 -658 -1453 -79 -11 -78 -10 73 91 703 469 825 1372
185 1372 -91 0 -169 -4 -174 -10 -12 -12 -46 -314 -65 -566 l-13 -175 -120
-61 c-665 -336 -1728 -431 -2506 -224 -162 43 -180 66 -53 66 148 0 465 37
567 67 l86 25 -200 25 c-713 91 -837 157 -300 161 637 5 701 20 320 77 -325
49 -680 125 -787 168 -57 23 18 26 560 21 1012 -11 1915 100 2293 281 l54 25
94 840 c108 965 184 1514 287 2077 40 218 69 400 64 405 -5 5 -99 -27 -209
-71 -248 -98 -593 -191 -856 -231 -294 -44 -350 -35 -130 22 441 113 1095 360
1115 422 23 72 -812 291 -1435 376 -224 30 -969 54 -1170 37z"/>
</g>
</svg>
