<?xml version="1.0" standalone="no"?>
<!DOCTYPE svg PUBLIC "-//W3C//DTD SVG 20010904//EN"
 "http://www.w3.org/TR/2001/REC-SVG-20010904/DTD/svg10.dtd">
<svg version="1.0" xmlns="http://www.w3.org/2000/svg"
 width="900.000000pt" height="900.000000pt" viewBox="0 0 900.000000 900.000000"
 preserveAspectRatio="xMidYMid meet">
<metadata>
Created by potrace 1.10, written by Peter Selinger 2001-2011
</metadata>
<g transform="translate(0.000000,900.000000) scale(0.100000,-0.100000)"
fill="#000000" stroke="none">
<path d="M4835 8364 c-102 -15 -222 -78 -309 -162 -95 -92 -147 -196 -168
-336 -20 -144 22 -311 106 -421 110 -143 253 -220 431 -232 116 -7 188 7 294
58 149 72 255 200 305 368 20 70 21 218 1 295 -49 189 -190 341 -380 409 -50
18 -217 30 -280 21z"/>
<path d="M3460 7969 c-150 -46 -222 -229 -144 -365 13 -22 72 -83 131 -135 59
-51 134 -118 168 -148 33 -30 76 -68 95 -85 81 -71 207 -183 230 -204 14 -12
53 -46 87 -75 33 -28 66 -61 73 -72 12 -22 10 -28 -135 -485 -8 -25 -35 -115
-60 -200 -25 -85 -52 -173 -60 -195 -7 -22 -21 -67 -31 -100 -20 -65 -46 -100
-358 -480 -189 -230 -213 -264 -222 -321 -13 -88 0 -122 137 -351 71 -120 133
-225 139 -233 5 -8 30 -50 56 -93 57 -96 107 -140 183 -161 155 -43 311 79
311 244 0 48 -19 113 -38 132 -7 7 -12 15 -12 19 0 5 -13 27 -29 51 -15 24
-43 70 -61 103 -18 33 -45 78 -59 100 -41 65 -61 104 -61 121 0 18 295 384
310 384 18 0 16 -17 -10 -78 -55 -130 -118 -287 -130 -326 -16 -49 -9 -112 19
-168 28 -57 37 -67 171 -183 63 -55 131 -114 150 -131 143 -127 291 -249 325
-266 30 -16 58 -21 114 -21 68 1 77 3 129 39 144 100 151 295 15 409 -136 114
-366 320 -370 332 -3 7 11 50 30 96 19 45 43 106 53 136 14 40 31 64 67 95 68
57 74 71 162 366 25 85 52 173 59 195 7 22 21 65 30 95 9 30 29 96 45 145 26
81 55 177 107 348 10 32 25 62 34 67 9 5 61 25 116 45 54 20 116 43 137 51 42
16 100 38 155 58 20 8 55 21 77 29 22 9 135 50 250 92 116 42 227 83 248 91
20 8 55 21 77 29 98 37 125 52 165 92 98 98 98 246 -2 347 -48 49 -112 76
-180 76 -37 0 -353 -110 -705 -246 -21 -8 -56 -21 -78 -29 -96 -36 -127 -48
-155 -59 -16 -7 -62 -23 -101 -36 l-71 -23 -74 22 c-163 51 -259 81 -359 111
-133 40 -189 61 -204 74 -6 6 -83 74 -171 151 -88 77 -162 142 -165 145 -3 3
-59 53 -125 111 -66 59 -151 134 -190 169 -38 34 -88 71 -109 82 -46 24 -136
32 -186 17z"/>
<path d="M4030 3975 c-14 -2 -122 -9 -240 -15 -783 -40 -1454 -165 -1897 -353
-190 -82 -364 -212 -429 -323 -82 -140 -68 -318 34 -443 l37 -45 5 -691 c5
-661 6 -691 24 -719 31 -44 89 -76 140 -76 59 0 106 25 142 75 l29 40 3 568
c2 477 5 567 16 567 8 0 34 -8 58 -18 53 -23 222 -83 263 -93 17 -4 84 -21
150 -39 208 -54 546 -117 760 -140 44 -5 118 -13 165 -19 202 -26 798 -62 889
-54 53 5 51 25 51 -621 0 -405 4 -614 11 -641 22 -77 92 -135 165 -135 32 0
94 26 115 49 51 54 49 36 50 698 0 340 3 624 8 632 7 10 62 15 242 22 341 12
735 47 984 86 265 41 501 86 630 120 188 49 254 71 397 128 37 15 74 25 82 22
14 -6 16 -68 16 -550 0 -563 1 -584 42 -636 73 -95 229 -77 279 32 18 40 19
75 19 713 l0 671 33 44 c137 181 128 375 -27 537 -127 134 -314 235 -596 324
-254 80 -429 121 -755 178 -166 28 -525 67 -800 86 -197 13 -1032 28 -1095 19z
m915 -346 c433 -23 759 -61 1130 -130 220 -42 437 -97 523 -135 18 -8 39 -14
47 -14 29 0 256 -109 318 -153 104 -74 118 -111 65 -166 -141 -145 -511 -277
-1058 -380 -164 -31 -501 -71 -820 -97 -297 -25 -1188 -25 -1490 -1 -354 29
-626 63 -865 108 -60 11 -131 24 -156 29 -25 5 -66 14 -90 20 -24 6 -71 18
-104 27 -287 73 -558 188 -646 274 -71 70 -66 100 29 171 92 69 215 128 396
190 202 68 385 109 774 172 190 32 483 63 767 82 138 10 702 20 860 17 72 -2
216 -8 320 -14z"/>
<path d="M3975 3499 c-222 -7 -465 -27 -675 -54 -370 -49 -565 -128 -620 -252
-29 -65 -26 -118 10 -180 62 -109 181 -161 485 -217 547 -100 1646 -110 2315
-21 363 48 548 112 615 214 93 140 21 288 -178 363 -316 119 -1078 177 -1952
147z m950 -339 c457 -31 459 -32 452 -54 -4 -12 -58 -18 -372 -41 -250 -17
-905 -21 -1130 -5 -320 22 -430 32 -438 39 -20 20 31 32 174 42 85 6 199 14
254 18 147 12 898 12 1060 1z"/>
</g>
</svg>
