<?xml version="1.0" standalone="no"?>
<!DOCTYPE svg PUBLIC "-//W3C//DTD SVG 20010904//EN"
 "http://www.w3.org/TR/2001/REC-SVG-20010904/DTD/svg10.dtd">
<svg version="1.0" xmlns="http://www.w3.org/2000/svg"
 width="450.000000pt" height="304.000000pt" viewBox="0 0 450.000000 304.000000"
 preserveAspectRatio="xMidYMid meet">
<metadata>
Created by potrace 1.10, written by Peter Selinger 2001-2011
</metadata>
<g transform="translate(0.000000,304.000000) scale(0.100000,-0.100000)"
fill="#000000" stroke="none">
<path d="M2035 2858 c-179 -33 -245 -53 -375 -114 -133 -63 -248 -143 -362
-252 -100 -96 -136 -142 -225 -289 -47 -77 -112 -227 -129 -296 -3 -15 -9 -29
-13 -32 -4 -2 -115 -5 -247 -5 -146 -1 -244 -6 -252 -12 -15 -13 -17 -204 -2
-213 12 -7 779 -7 791 0 4 3 11 27 14 53 18 129 95 310 183 429 200 268 489
413 824 413 151 0 288 -32 428 -100 113 -55 136 -71 214 -140 84 -75 110 -103
152 -160 140 -191 209 -400 202 -615 l-3 -90 -890 -5 c-490 -3 -891 -6 -892
-8 -2 -1 -3 -17 -3 -35 0 -47 26 -131 67 -212 135 -271 416 -445 718 -445 140
0 339 62 443 138 101 73 217 200 254 278 11 24 23 45 27 45 21 5 179 6 194 2
22 -6 21 -38 -1 -79 -9 -17 -29 -54 -44 -81 -82 -152 -243 -307 -413 -398 -80
-43 -120 -58 -225 -87 -107 -30 -359 -30 -476 -1 -182 46 -330 131 -470 268
-146 144 -225 282 -275 485 -10 41 -19 83 -19 92 0 10 -9 22 -19 28 -24 12
-280 13 -300 1 -41 -26 38 -336 132 -516 99 -189 274 -383 450 -496 322 -208
718 -272 1082 -173 162 43 262 89 405 183 89 58 281 242 336 321 91 133 173
301 200 413 3 15 11 30 18 34 6 4 120 8 253 9 133 1 247 5 252 9 17 10 14 200
-2 214 -9 7 -93 12 -238 13 l-224 3 -7 145 c-7 162 -24 260 -70 388 -103 294
-312 555 -570 709 -162 98 -281 141 -490 178 -92 16 -323 18 -403 3z"/>
<path d="M2070 2314 c-178 -39 -344 -140 -463 -283 -71 -86 -145 -247 -154
-337 l-6 -54 769 -2 c423 -2 774 -2 781 0 6 2 14 10 17 19 17 44 -78 275 -149
362 -37 46 -120 124 -173 163 -168 125 -415 177 -622 132z"/>
</g>
</svg>
